<svg xmlns="http://www.w3.org/2000/svg" width="512" height="512" viewBox="0 0 512 512">
  <!-- Tile 0: color2 background -->
  <rect x="0.000000" y="0.000000" width="128" height="128" fill="#acacac" />
  <!-- Tile 0: color1 path shapes -->
  <path d="M0.000000,8.000000 h8.000000 v8.000000 h-8.000000 z M0.000000,16.000000 h8.000000 v8.000000 h-8.000000 z M0.000000,24.000000 h8.000000 v8.000000 h-8.000000 z M0.000000,32.000000 h8.000000 v8.000000 h-8.000000 z M0.000000,40.000000 h8.000000 v8.000000 h-8.000000 z M0.000000,48.000000 h8.000000 v8.000000 h-8.000000 z M0.000000,56.000000 h8.000000 v8.000000 h-8.000000 z M0.000000,64.000000 h8.000000 v8.000000 h-8.000000 z M0.000000,72.000000 h8.000000 v8.000000 h-8.000000 z M0.000000,80.000000 h8.000000 v8.000000 h-8.000000 z M0.000000,88.000000 h8.000000 v8.000000 h-8.000000 z M0.000000,96.000000 h8.000000 v8.000000 h-8.000000 z M0.000000,104.000000 h8.000000 v8.000000 h-8.000000 z M0.000000,112.000000 h8.000000 v8.000000 h-8.000000 z M0.000000,120.000000 h8.000000 v8.000000 h-8.000000 z" fill="#1a1a1a" />
  <!-- Tile 1: color2 background -->
  <rect x="128.000000" y="0.000000" width="128" height="128" fill="#efefef" />
  <!-- Tile 1: color1 path shapes -->
  <!-- Tile 2: color2 background -->
  <rect x="256.000000" y="0.000000" width="128" height="128" fill="#777777" />
  <!-- Tile 2: color1 path shapes -->
  <!-- Tile 3: color2 background -->
  <rect x="384.000000" y="0.000000" width="128" height="128" fill="#252525" />
  <!-- Tile 3: color1 path shapes -->
  <path d="M384.000000,0.000000 h8.000000 v8.000000 h-8.000000 z M392.000000,0.000000 h8.000000 v8.000000 h-8.000000 z M400.000000,0.000000 h8.000000 v8.000000 h-8.000000 z M408.000000,0.000000 h8.000000 v8.000000 h-8.000000 z M416.000000,0.000000 h8.000000 v8.000000 h-8.000000 z M424.000000,0.000000 h8.000000 v8.000000 h-8.000000 z M432.000000,0.000000 h8.000000 v8.000000 h-8.000000 z M440.000000,0.000000 h8.000000 v8.000000 h-8.000000 z M448.000000,0.000000 h8.000000 v8.000000 h-8.000000 z M456.000000,0.000000 h8.000000 v8.000000 h-8.000000 z M464.000000,0.000000 h8.000000 v8.000000 h-8.000000 z M472.000000,0.000000 h8.000000 v8.000000 h-8.000000 z M480.000000,0.000000 h8.000000 v8.000000 h-8.000000 z M488.000000,0.000000 h8.000000 v8.000000 h-8.000000 z M496.000000,0.000000 h8.000000 v8.000000 h-8.000000 z M504.000000,0.000000 h8.000000 v8.000000 h-8.000000 z M384.000000,8.000000 h8.000000 v8.000000 h-8.000000 z M392.000000,8.000000 h8.000000 v8.000000 h-8.000000 z M400.000000,8.000000 h8.000000 v8.000000 h-8.000000 z M408.000000,8.000000 h8.000000 v8.000000 h-8.000000 z M416.000000,8.000000 h8.000000 v8.000000 h-8.000000 z M424.000000,8.000000 h8.000000 v8.000000 h-8.000000 z M432.000000,8.000000 h8.000000 v8.000000 h-8.000000 z M440.000000,8.000000 h8.000000 v8.000000 h-8.000000 z M448.000000,8.000000 h8.000000 v8.000000 h-8.000000 z M456.000000,8.000000 h8.000000 v8.000000 h-8.000000 z M464.000000,8.000000 h8.000000 v8.000000 h-8.000000 z M472.000000,8.000000 h8.000000 v8.000000 h-8.000000 z M480.000000,8.000000 h8.000000 v8.000000 h-8.000000 z M488.000000,8.000000 h8.000000 v8.000000 h-8.000000 z M496.000000,8.000000 h8.000000 v8.000000 h-8.000000 z M504.000000,8.000000 h8.000000 v8.000000 h-8.000000 z M384.000000,16.000000 h8.000000 v8.000000 h-8.000000 z M392.000000,16.000000 h8.000000 v8.000000 h-8.000000 z M400.000000,16.000000 h8.000000 v8.000000 h-8.000000 z M408.000000,16.000000 h8.000000 v8.000000 h-8.000000 z M416.000000,16.000000 h8.000000 v8.000000 h-8.000000 z M424.000000,16.000000 h8.000000 v8.000000 h-8.000000 z M432.000000,16.000000 h8.000000 v8.000000 h-8.000000 z M440.000000,16.000000 h8.000000 v8.000000 h-8.000000 z M448.000000,16.000000 h8.000000 v8.000000 h-8.000000 z M456.000000,16.000000 h8.000000 v8.000000 h-8.000000 z M464.000000,16.000000 h8.000000 v8.000000 h-8.000000 z M472.000000,16.000000 h8.000000 v8.000000 h-8.000000 z M480.000000,16.000000 h8.000000 v8.000000 h-8.000000 z M488.000000,16.000000 h8.000000 v8.000000 h-8.000000 z M496.000000,16.000000 h8.000000 v8.000000 h-8.000000 z M504.000000,16.000000 h8.000000 v8.000000 h-8.000000 z M384.000000,24.000000 h8.000000 v8.000000 h-8.000000 z M392.000000,24.000000 h8.000000 v8.000000 h-8.000000 z M400.000000,24.000000 h8.000000 v8.000000 h-8.000000 z M408.000000,24.000000 h8.000000 v8.000000 h-8.000000 z M416.000000,24.000000 h8.000000 v8.000000 h-8.000000 z M424.000000,24.000000 h8.000000 v8.000000 h-8.000000 z M432.000000,24.000000 h8.000000 v8.000000 h-8.000000 z M440.000000,24.000000 h8.000000 v8.000000 h-8.000000 z M448.000000,24.000000 h8.000000 v8.000000 h-8.000000 z M456.000000,24.000000 h8.000000 v8.000000 h-8.000000 z M464.000000,24.000000 h8.000000 v8.000000 h-8.000000 z M472.000000,24.000000 h8.000000 v8.000000 h-8.000000 z M480.000000,24.000000 h8.000000 v8.000000 h-8.000000 z M488.000000,24.000000 h8.000000 v8.000000 h-8.000000 z M496.000000,24.000000 h8.000000 v8.000000 h-8.000000 z M504.000000,24.000000 h8.000000 v8.000000 h-8.000000 z M384.000000,32.000000 h8.000000 v8.000000 h-8.000000 z M392.000000,32.000000 h8.000000 v8.000000 h-8.000000 z M400.000000,32.000000 h8.000000 v8.000000 h-8.000000 z M408.000000,32.000000 h8.000000 v8.000000 h-8.000000 z M416.000000,32.000000 h8.000000 v8.000000 h-8.000000 z M424.000000,32.000000 h8.000000 v8.000000 h-8.000000 z M432.000000,32.000000 h8.000000 v8.000000 h-8.000000 z M440.000000,32.000000 h8.000000 v8.000000 h-8.000000 z M448.000000,32.000000 h8.000000 v8.000000 h-8.000000 z M456.000000,32.000000 h8.000000 v8.000000 h-8.000000 z M464.000000,32.000000 h8.000000 v8.000000 h-8.000000 z M472.000000,32.000000 h8.000000 v8.000000 h-8.000000 z M480.000000,32.000000 h8.000000 v8.000000 h-8.000000 z M488.000000,32.000000 h8.000000 v8.000000 h-8.000000 z M496.000000,32.000000 h8.000000 v8.000000 h-8.000000 z M504.000000,32.000000 h8.000000 v8.000000 h-8.000000 z M384.000000,40.000000 h8.000000 v8.000000 h-8.000000 z M392.000000,40.000000 h8.000000 v8.000000 h-8.000000 z M400.000000,40.000000 h8.000000 v8.000000 h-8.000000 z M408.000000,40.000000 h8.000000 v8.000000 h-8.000000 z M416.000000,40.000000 h8.000000 v8.000000 h-8.000000 z M424.000000,40.000000 h8.000000 v8.000000 h-8.000000 z M432.000000,40.000000 h8.000000 v8.000000 h-8.000000 z M440.000000,40.000000 h8.000000 v8.000000 h-8.000000 z M448.000000,40.000000 h8.000000 v8.000000 h-8.000000 z M456.000000,40.000000 h8.000000 v8.000000 h-8.000000 z M464.000000,40.000000 h8.000000 v8.000000 h-8.000000 z M472.000000,40.000000 h8.000000 v8.000000 h-8.000000 z M480.000000,40.000000 h8.000000 v8.000000 h-8.000000 z M488.000000,40.000000 h8.000000 v8.000000 h-8.000000 z M496.000000,40.000000 h8.000000 v8.000000 h-8.000000 z M504.000000,40.000000 h8.000000 v8.000000 h-8.000000 z M384.000000,48.000000 h8.000000 v8.000000 h-8.000000 z M392.000000,48.000000 h8.000000 v8.000000 h-8.000000 z M400.000000,48.000000 h8.000000 v8.000000 h-8.000000 z M408.000000,48.000000 h8.000000 v8.000000 h-8.000000 z M416.000000,48.000000 h8.000000 v8.000000 h-8.000000 z M424.000000,48.000000 h8.000000 v8.000000 h-8.000000 z M432.000000,48.000000 h8.000000 v8.000000 h-8.000000 z M440.000000,48.000000 h8.000000 v8.000000 h-8.000000 z M448.000000,48.000000 h8.000000 v8.000000 h-8.000000 z M456.000000,48.000000 h8.000000 v8.000000 h-8.000000 z M464.000000,48.000000 h8.000000 v8.000000 h-8.000000 z M472.000000,48.000000 h8.000000 v8.000000 h-8.000000 z M480.000000,48.000000 h8.000000 v8.000000 h-8.000000 z M488.000000,48.000000 h8.000000 v8.000000 h-8.000000 z M496.000000,48.000000 h8.000000 v8.000000 h-8.000000 z M504.000000,48.000000 h8.000000 v8.000000 h-8.000000 z M384.000000,56.000000 h8.000000 v8.000000 h-8.000000 z M392.000000,56.000000 h8.000000 v8.000000 h-8.000000 z M400.000000,56.000000 h8.000000 v8.000000 h-8.000000 z M408.000000,56.000000 h8.000000 v8.000000 h-8.000000 z M416.000000,56.000000 h8.000000 v8.000000 h-8.000000 z M424.000000,56.000000 h8.000000 v8.000000 h-8.000000 z M432.000000,56.000000 h8.000000 v8.000000 h-8.000000 z M440.000000,56.000000 h8.000000 v8.000000 h-8.000000 z M448.000000,56.000000 h8.000000 v8.000000 h-8.000000 z M456.000000,56.000000 h8.000000 v8.000000 h-8.000000 z M464.000000,56.000000 h8.000000 v8.000000 h-8.000000 z M472.000000,56.000000 h8.000000 v8.000000 h-8.000000 z M480.000000,56.000000 h8.000000 v8.000000 h-8.000000 z M488.000000,56.000000 h8.000000 v8.000000 h-8.000000 z M496.000000,56.000000 h8.000000 v8.000000 h-8.000000 z M504.000000,56.000000 h8.000000 v8.000000 h-8.000000 z M384.000000,64.000000 h8.000000 v8.000000 h-8.000000 z M392.000000,64.000000 h8.000000 v8.000000 h-8.000000 z M400.000000,64.000000 h8.000000 v8.000000 h-8.000000 z M408.000000,64.000000 h8.000000 v8.000000 h-8.000000 z M416.000000,64.000000 h8.000000 v8.000000 h-8.000000 z M424.000000,64.000000 h8.000000 v8.000000 h-8.000000 z M432.000000,64.000000 h8.000000 v8.000000 h-8.000000 z M440.000000,64.000000 h8.000000 v8.000000 h-8.000000 z M448.000000,64.000000 h8.000000 v8.000000 h-8.000000 z M456.000000,64.000000 h8.000000 v8.000000 h-8.000000 z M464.000000,64.000000 h8.000000 v8.000000 h-8.000000 z M472.000000,64.000000 h8.000000 v8.000000 h-8.000000 z M480.000000,64.000000 h8.000000 v8.000000 h-8.000000 z M488.000000,64.000000 h8.000000 v8.000000 h-8.000000 z M496.000000,64.000000 h8.000000 v8.000000 h-8.000000 z M504.000000,64.000000 h8.000000 v8.000000 h-8.000000 z M384.000000,72.000000 h8.000000 v8.000000 h-8.000000 z M392.000000,72.000000 h8.000000 v8.000000 h-8.000000 z M400.000000,72.000000 h8.000000 v8.000000 h-8.000000 z M408.000000,72.000000 h8.000000 v8.000000 h-8.000000 z M416.000000,72.000000 h8.000000 v8.000000 h-8.000000 z M424.000000,72.000000 h8.000000 v8.000000 h-8.000000 z M432.000000,72.000000 h8.000000 v8.000000 h-8.000000 z M440.000000,72.000000 h8.000000 v8.000000 h-8.000000 z M448.000000,72.000000 h8.000000 v8.000000 h-8.000000 z M456.000000,72.000000 h8.000000 v8.000000 h-8.000000 z M464.000000,72.000000 h8.000000 v8.000000 h-8.000000 z M472.000000,72.000000 h8.000000 v8.000000 h-8.000000 z M480.000000,72.000000 h8.000000 v8.000000 h-8.000000 z M488.000000,72.000000 h8.000000 v8.000000 h-8.000000 z M496.000000,72.000000 h8.000000 v8.000000 h-8.000000 z M504.000000,72.000000 h8.000000 v8.000000 h-8.000000 z M384.000000,80.000000 h8.000000 v8.000000 h-8.000000 z M392.000000,80.000000 h8.000000 v8.000000 h-8.000000 z M400.000000,80.000000 h8.000000 v8.000000 h-8.000000 z M408.000000,80.000000 h8.000000 v8.000000 h-8.000000 z M416.000000,80.000000 h8.000000 v8.000000 h-8.000000 z M424.000000,80.000000 h8.000000 v8.000000 h-8.000000 z M432.000000,80.000000 h8.000000 v8.000000 h-8.000000 z M440.000000,80.000000 h8.000000 v8.000000 h-8.000000 z M448.000000,80.000000 h8.000000 v8.000000 h-8.000000 z M456.000000,80.000000 h8.000000 v8.000000 h-8.000000 z M464.000000,80.000000 h8.000000 v8.000000 h-8.000000 z M472.000000,80.000000 h8.000000 v8.000000 h-8.000000 z M480.000000,80.000000 h8.000000 v8.000000 h-8.000000 z M488.000000,80.000000 h8.000000 v8.000000 h-8.000000 z M496.000000,80.000000 h8.000000 v8.000000 h-8.000000 z M504.000000,80.000000 h8.000000 v8.000000 h-8.000000 z M384.000000,88.000000 h8.000000 v8.000000 h-8.000000 z M392.000000,88.000000 h8.000000 v8.000000 h-8.000000 z M400.000000,88.000000 h8.000000 v8.000000 h-8.000000 z M408.000000,88.000000 h8.000000 v8.000000 h-8.000000 z M416.000000,88.000000 h8.000000 v8.000000 h-8.000000 z M424.000000,88.000000 h8.000000 v8.000000 h-8.000000 z M432.000000,88.000000 h8.000000 v8.000000 h-8.000000 z M440.000000,88.000000 h8.000000 v8.000000 h-8.000000 z M448.000000,88.000000 h8.000000 v8.000000 h-8.000000 z M456.000000,88.000000 h8.000000 v8.000000 h-8.000000 z M464.000000,88.000000 h8.000000 v8.000000 h-8.000000 z M472.000000,88.000000 h8.000000 v8.000000 h-8.000000 z M480.000000,88.000000 h8.000000 v8.000000 h-8.000000 z M488.000000,88.000000 h8.000000 v8.000000 h-8.000000 z M496.000000,88.000000 h8.000000 v8.000000 h-8.000000 z M504.000000,88.000000 h8.000000 v8.000000 h-8.000000 z M384.000000,96.000000 h8.000000 v8.000000 h-8.000000 z M392.000000,96.000000 h8.000000 v8.000000 h-8.000000 z M400.000000,96.000000 h8.000000 v8.000000 h-8.000000 z M408.000000,96.000000 h8.000000 v8.000000 h-8.000000 z M416.000000,96.000000 h8.000000 v8.000000 h-8.000000 z M424.000000,96.000000 h8.000000 v8.000000 h-8.000000 z M432.000000,96.000000 h8.000000 v8.000000 h-8.000000 z M440.000000,96.000000 h8.000000 v8.000000 h-8.000000 z M448.000000,96.000000 h8.000000 v8.000000 h-8.000000 z M456.000000,96.000000 h8.000000 v8.000000 h-8.000000 z M464.000000,96.000000 h8.000000 v8.000000 h-8.000000 z M472.000000,96.000000 h8.000000 v8.000000 h-8.000000 z M480.000000,96.000000 h8.000000 v8.000000 h-8.000000 z M488.000000,96.000000 h8.000000 v8.000000 h-8.000000 z M496.000000,96.000000 h8.000000 v8.000000 h-8.000000 z M504.000000,96.000000 h8.000000 v8.000000 h-8.000000 z M384.000000,104.000000 h8.000000 v8.000000 h-8.000000 z M392.000000,104.000000 h8.000000 v8.000000 h-8.000000 z M400.000000,104.000000 h8.000000 v8.000000 h-8.000000 z M408.000000,104.000000 h8.000000 v8.000000 h-8.000000 z M416.000000,104.000000 h8.000000 v8.000000 h-8.000000 z M424.000000,104.000000 h8.000000 v8.000000 h-8.000000 z M432.000000,104.000000 h8.000000 v8.000000 h-8.000000 z M440.000000,104.000000 h8.000000 v8.000000 h-8.000000 z M448.000000,104.000000 h8.000000 v8.000000 h-8.000000 z M456.000000,104.000000 h8.000000 v8.000000 h-8.000000 z M464.000000,104.000000 h8.000000 v8.000000 h-8.000000 z M472.000000,104.000000 h8.000000 v8.000000 h-8.000000 z M480.000000,104.000000 h8.000000 v8.000000 h-8.000000 z M488.000000,104.000000 h8.000000 v8.000000 h-8.000000 z M496.000000,104.000000 h8.000000 v8.000000 h-8.000000 z M504.000000,104.000000 h8.000000 v8.000000 h-8.000000 z M384.000000,112.000000 h8.000000 v8.000000 h-8.000000 z M392.000000,112.000000 h8.000000 v8.000000 h-8.000000 z M400.000000,112.000000 h8.000000 v8.000000 h-8.000000 z M408.000000,112.000000 h8.000000 v8.000000 h-8.000000 z M416.000000,112.000000 h8.000000 v8.000000 h-8.000000 z M424.000000,112.000000 h8.000000 v8.000000 h-8.000000 z M432.000000,112.000000 h8.000000 v8.000000 h-8.000000 z M440.000000,112.000000 h8.000000 v8.000000 h-8.000000 z M448.000000,112.000000 h8.000000 v8.000000 h-8.000000 z M456.000000,112.000000 h8.000000 v8.000000 h-8.000000 z M464.000000,112.000000 h8.000000 v8.000000 h-8.000000 z M472.000000,112.000000 h8.000000 v8.000000 h-8.000000 z M480.000000,112.000000 h8.000000 v8.000000 h-8.000000 z M488.000000,112.000000 h8.000000 v8.000000 h-8.000000 z M496.000000,112.000000 h8.000000 v8.000000 h-8.000000 z M504.000000,112.000000 h8.000000 v8.000000 h-8.000000 z M384.000000,120.000000 h8.000000 v8.000000 h-8.000000 z M392.000000,120.000000 h8.000000 v8.000000 h-8.000000 z M400.000000,120.000000 h8.000000 v8.000000 h-8.000000 z M408.000000,120.000000 h8.000000 v8.000000 h-8.000000 z M416.000000,120.000000 h8.000000 v8.000000 h-8.000000 z M424.000000,120.000000 h8.000000 v8.000000 h-8.000000 z M432.000000,120.000000 h8.000000 v8.000000 h-8.000000 z M440.000000,120.000000 h8.000000 v8.000000 h-8.000000 z M448.000000,120.000000 h8.000000 v8.000000 h-8.000000 z M456.000000,120.000000 h8.000000 v8.000000 h-8.000000 z M464.000000,120.000000 h8.000000 v8.000000 h-8.000000 z M472.000000,120.000000 h8.000000 v8.000000 h-8.000000 z M480.000000,120.000000 h8.000000 v8.000000 h-8.000000 z M488.000000,120.000000 h8.000000 v8.000000 h-8.000000 z M496.000000,120.000000 h8.000000 v8.000000 h-8.000000 z M504.000000,120.000000 h8.000000 v8.000000 h-8.000000 z" fill="#c1c1c1" />
  <!-- Tile 4: color2 background -->
  <rect x="0.000000" y="128.000000" width="128" height="128" fill="#adadad" />
  <!-- Tile 4: color1 path shapes -->
  <!-- Tile 5: color2 background -->
  <rect x="128.000000" y="128.000000" width="128" height="128" fill="#929292" />
  <!-- Tile 5: color1 path shapes -->
  <!-- Tile 6: color2 background -->
  <rect x="256.000000" y="128.000000" width="128" height="128" fill="#9b9b9b" />
  <!-- Tile 6: color1 path shapes -->
  <!-- Tile 7: color2 background -->
  <rect x="384.000000" y="128.000000" width="128" height="128" fill="#1f1f1f" />
  <!-- Tile 7: color1 path shapes -->
  <!-- Tile 8: color2 background -->
  <rect x="0.000000" y="256.000000" width="128" height="128" fill="#4a4a4a" />
  <!-- Tile 8: color1 path shapes -->
  <!-- Tile 9: color2 background -->
  <rect x="128.000000" y="256.000000" width="128" height="128" fill="#b1b1b1" />
  <!-- Tile 9: color1 path shapes -->
  <!-- Tile 10: color2 background -->
  <rect x="256.000000" y="256.000000" width="128" height="128" fill="#2b2b2b" />
  <!-- Tile 10: color1 path shapes -->
  <!-- Tile 11: color2 background -->
  <rect x="384.000000" y="256.000000" width="128" height="128" fill="#1b1b1b" />
  <!-- Tile 11: color1 path shapes -->
  <!-- Tile 12: color2 background -->
  <rect x="0.000000" y="384.000000" width="128" height="128" fill="#717171" />
  <!-- Tile 12: color1 path shapes -->
  <!-- Tile 13: color2 background -->
  <rect x="128.000000" y="384.000000" width="128" height="128" fill="#0e0e0e" />
  <!-- Tile 13: color1 path shapes -->
  <!-- Tile 14: color2 background -->
  <rect x="256.000000" y="384.000000" width="128" height="128" fill="#a2a2a2" />
  <!-- Tile 14: color1 path shapes -->
  <!-- Tile 15: color2 background -->
  <rect x="384.000000" y="384.000000" width="128" height="128" fill="#191919" />
  <!-- Tile 15: color1 path shapes -->
</svg>
